<svg id="Icons" version="1.1" viewBox="0 0 32 32" xml:space="preserve" xmlns="http://www.w3.org/2000/svg" enable-background="new 0 0 32 32"><path d="M12.5 23h-1.3v-.1c-.1-.2-.2-.4-.4-.5l-.1-.1c-.3-.4-.6-.7-1-1l-.1-.1c-.2-.1-.3-.2-.5-.3l-.1-.1c-.4-.2-.9-.4-1.3-.6h-.2c-.2 0-.4-.1-.5-.1H6.1c-3.3 0-6 2.7-6 6s2.7 6 6 6h6.5c2.5 0 4.5-2 4.5-4.5S15 23 12.5 23zM27.9 4.8h-.6s0-.1-.1-.1c-.1-.2-.2-.3-.4-.5l-.1-.1c-.2-.2-.3-.3-.5-.4 0 0-.1 0-.1-.1-.2-.1-.3-.2-.5-.3 0 0-.1 0-.1-.1-.2-.1-.4-.2-.6-.2H24c-2.2 0-4 1.8-4 4s1.8 4 4 4H27.9c1.7 0 3.1-1.4 3.1-3.1 0-1.7-1.4-3.1-3.1-3.1zM9 20.8z" fill="#212b36" class="fill-000000"></path><path d="M29.2 14.2c-.4-.1-.9.1-1.1.5C26.7 17.3 24 19 21 19c-4.4 0-8-3.6-8-8 0-3 1.7-5.7 4.3-7.1.4-.2.6-.7.5-1.1-.1-.4-.5-.8-1-.8C9.8 2.1 4 7.9 4 15c0 1.1.1 2.1.4 3.2.5-.1 1.1-.2 1.6-.2.3 0 .7 0 1 .1h.2c.3 0 .5.1.8.2l.2.1c.6.2 1.2.4 1.8.7l.2.1c.2.1.5.3.7.4l.2.1c.5.4.9.8 1.3 1.3h.3c3.6 0 6.5 2.9 6.5 6.5v.3c6.2-1 10.9-6.3 11-12.7-.2-.4-.5-.8-1-.9z" fill="#212b36" class="fill-000000"></path></svg>