<svg data-name="Layer 1" viewBox="0 0 272 272" xmlns="http://www.w3.org/2000/svg"><ellipse cx="136" cy="136" rx="75.46" ry="74.87" fill="#ccccce" class="fill-564c4d"></ellipse><path d="M159.13 54.83a86.1 86.1 0 0 0-44-.61L137 9ZM159.13 217.17 137 263l-21.84-45.22a86.1 86.1 0 0 0 44-.61ZM218.12 157.82a84.08 84.08 0 0 0 0-43.64L264 136ZM51 136a83.42 83.42 0 0 0 2.88 21.81L8 136l45.88-21.81A83.42 83.42 0 0 0 51 136ZM227.51 225.8l-48.62-17a84.85 84.85 0 0 0 31.33-31.71ZM93.86 62.75A85 85 0 0 0 63 92.76L46.49 46.2ZM227.51 46.2l-17.29 48.7a84.85 84.85 0 0 0-31.33-31.71ZM93.86 209.25 46.49 225.8 63 179.24a85 85 0 0 0 30.86 30.01Z" fill="#ccccce" class="fill-564c4d"></path></svg>